<svg width="80" height="80" viewBox="0 0 80 80" fill="none" xmlns="http://www.w3.org/2000/svg">
<path fill-rule="evenodd" clip-rule="evenodd" d="M47.4401 47.6398C50.0801 50.2798 53.6001 51.6398 57.1201 51.6398C60.6401 51.6398 64.1601 50.2798 66.8001 47.6398C69.4401 44.9998 70.8001 41.4798 70.8001 37.9598C70.8001 34.4398 69.4401 30.9198 66.8001 28.2798C64.1601 25.6398 60.6401 24.2798 57.1201 24.2798C53.6001 24.2798 50.0801 25.6398 47.4401 28.2798C44.8001 30.9198 43.4401 34.4398 43.4401 37.9598C43.3601 41.4798 44.7201 44.9998 47.4401 47.6398ZM36.0001 15.3198C32.6401 15.3198 32.6401 20.1198 36.0001 20.1198H36.7201C40.0801 20.1198 40.0801 25.2398 36.7201 25.2398H27.2C23.84 25.2398 23.84 30.3598 27.2 30.3598H31.28H32.5601C35.9201 30.3598 35.9201 35.4798 32.5601 35.4798H31.28H19.04C15.68 35.4798 15.68 40.5998 19.04 40.5998H24.24H25.52C28.88 40.5998 28.88 45.7198 25.52 45.7198H24.24H23.52C20.16 45.7198 20.16 50.8398 23.52 50.8398H27.3601H28.64C32 50.8398 32 55.9598 28.64 55.9598H21.76H18.32C14.96 55.9598 14.96 61.0798 18.32 61.0798H57.1201C69.7601 61.0798 80.0001 50.8398 80.0001 38.1998C80.0001 25.5598 69.7601 15.3198 57.1201 15.3198H36.0001Z" fill="#FFC125"/>
<path fill-rule="evenodd" clip-rule="evenodd" d="M2.56004 55.8C-0.799961 55.8 -0.799961 60.9201 2.56004 60.9201H7.28004C10.64 60.9201 10.64 55.8 7.28004 55.8H2.56004Z" fill="#FFC125"/>
<path fill-rule="evenodd" clip-rule="evenodd" d="M8.48004 45.5601C9.92004 45.5601 11.04 46.6801 11.04 48.1201C11.04 49.5601 9.92004 50.6801 8.48004 50.6801C7.04004 50.6801 5.92004 49.5601 5.92004 48.1201C5.92004 46.6801 7.04004 45.5601 8.48004 45.5601Z" fill="#FFC125"/>
<path fill-rule="evenodd" clip-rule="evenodd" d="M3.99998 35.3999C0.639981 35.3999 0.639981 40.5199 3.99998 40.5199H8.71998C12.08 40.5199 12.08 35.3999 8.71998 35.3999H3.99998Z" fill="#FFC125"/>
<path fill-rule="evenodd" clip-rule="evenodd" d="M22.6401 15C24.0801 15 25.2001 16.12 25.2001 17.56C25.2001 19 24.0801 20.12 22.6401 20.12C21.2001 20.12 20.0801 19 20.0801 17.56C20.1601 16.2 21.2801 15 22.6401 15Z" fill="#FFC125"/>
<path fill-rule="evenodd" clip-rule="evenodd" d="M18.2401 25.24C19.6801 25.24 20.8001 26.36 20.8001 27.8C20.8001 29.24 19.6801 30.36 18.2401 30.36C16.8001 30.36 15.6801 29.24 15.6801 27.8C15.7601 26.36 16.8801 25.24 18.2401 25.24Z" fill="#FFC125"/>
<path d="M70.8 37.96C70.8 34.44 69.44 30.9199 66.8 28.2799C64.16 25.6399 60.64 24.2799 57.12 24.2799C53.6 24.2799 50.08 25.6399 47.44 28.2799C44.8 30.9199 43.44 34.44 43.44 37.96C43.44 41.4799 44.8 44.9999 47.44 47.6399C50.08 50.2799 53.6 51.6399 57.12 51.6399C60.64 51.6399 64.16 50.2799 66.8 47.6399C69.44 44.9999 70.8 41.4799 70.8 37.96ZM34.56 56.4399C35.12 55.8799 35.84 55.6399 36.56 55.5599L43.12 49C40.56 45.7999 39.28 41.88 39.28 37.96C39.28 33.4 41.04 28.84 44.48 25.4C47.92 21.96 52.48 20.2 57.04 20.2C61.6 20.2 66.16 21.96 69.6 25.4C73.04 28.92 74.8 33.4 74.8 37.96C74.8 42.52 73.04 47.0799 69.6 50.5199C66.16 53.9599 61.6 55.7199 57.04 55.7199C53.12 55.7199 49.2 54.4399 46 51.8799L39.44 58.4399C39.44 59.1599 39.12 59.8799 38.56 60.4399L29.28 69.7999C28.16 70.9199 26.32 70.9199 25.2 69.7999C24.08 68.6799 24.08 66.8399 25.2 65.7199L34.56 56.4399Z" fill="#162930"/>
</svg>
