<svg width="35" height="35" viewBox="0 0 35 35" fill="none" xmlns="http://www.w3.org/2000/svg">
<path d="M23.8281 14.9609C22.1354 16.6536 20.0703 17.5 17.6328 17.5C15.263 17.5 13.2318 16.6536 11.5391 14.9609C9.84635 13.2682 9 11.237 9 8.86719C9 6.42969 9.84635 4.36458 11.5391 2.67188C13.2318 0.979167 15.263 0.132812 17.6328 0.132812C20.0703 0.132812 22.1354 0.979167 23.8281 2.67188C25.5208 4.36458 26.3672 6.42969 26.3672 8.86719C26.3672 11.237 25.5208 13.2682 23.8281 14.9609ZM10.625 22.7812C13.1979 22.1719 15.5339 21.8672 17.6328 21.8672C19.7995 21.8672 22.1693 22.1719 24.7422 22.7812C27.3151 23.3906 29.651 24.4062 31.75 25.8281C33.9167 27.1823 35 28.7396 35 30.5V34.8672H0.367188V30.5C0.367188 28.7396 1.41667 27.1823 3.51562 25.8281C5.68229 24.4062 8.05208 23.3906 10.625 22.7812Z" fill="black"/>
</svg>
