<svg width="15" height="15" viewBox="0 0 15 15" fill="none" xmlns="http://www.w3.org/2000/svg">
<path d="M14.1797 10.4297C14.388 10.4297 14.5703 10.5078 14.7266 10.6641C14.9089 10.8203 15 11.0156 15 11.25V14.1797C15 14.388 14.9089 14.5833 14.7266 14.7656C14.5703 14.9219 14.388 15 14.1797 15C11.6016 15 9.21875 14.375 7.03125 13.125C4.86979 11.849 3.15104 10.1302 1.875 7.96875C0.625 5.78125 0 3.39844 0 0.820312C0 0.611979 0.078125 0.429688 0.234375 0.273438C0.416667 0.0911458 0.611979 0 0.820312 0H3.75C3.98438 0 4.17969 0.0911458 4.33594 0.273438C4.49219 0.429688 4.57031 0.611979 4.57031 0.820312C4.57031 1.86198 4.72656 2.85156 5.03906 3.78906C5.14323 4.1276 5.07812 4.41406 4.84375 4.64844L3.00781 6.48438C4.23177 8.90625 6.06771 10.7422 8.51562 11.9922L10.3516 10.1562C10.5859 9.92188 10.8724 9.85677 11.2109 9.96094C12.1484 10.2734 13.138 10.4297 14.1797 10.4297ZM7.5 0H15V5.82031H10L7.5 8.32031V0Z" fill="#FFC125"/>
</svg>
