<svg width="50" height="75" viewBox="0 0 65 86" fill="none" xmlns="http://www.w3.org/2000/svg">
<path d="M32.4703 4.24744C15.4569 4.24744 1.66475 17.9335 1.66475 34.8161C1.66475 40.7722 3.37862 46.3286 6.35186 51.0267C9.47405 55.9734 13.9868 59.966 19.3442 62.4746L32.3273 84.1115L45.2046 62.6552C51.1045 59.9937 56.0117 55.5442 59.2176 50.0004C61.8007 45.5274 63.2784 40.3439 63.2784 34.8152C63.2793 17.9335 49.4871 4.24744 32.4703 4.24744Z" fill="#FFB000"/>
<path d="M58.4881 34.8157C58.4881 48.8604 46.9227 60.2454 32.6549 60.2454C18.3879 60.2454 6.82161 48.8604 6.82161 34.8157C6.82161 20.771 18.3879 9.38611 32.6549 9.38611C46.9227 9.38611 58.4881 20.771 58.4881 34.8157Z" fill="white"/>
<path d="M25.392 20.38C22.004 20.38 18.99 22.954 18.99 28.3C18.99 33.668 22.004 36.22 25.392 36.22C28.824 36.22 31.794 33.668 31.794 28.3C31.794 22.954 28.824 20.38 25.392 20.38ZM25.392 23.416C27.988 23.416 28.45 26.254 28.45 28.3C28.45 30.368 27.988 33.184 25.392 33.184C22.796 33.184 22.356 30.368 22.356 28.3C22.356 26.254 22.796 23.416 25.392 23.416ZM43.3853 20.6H35.2233L34.2113 28.3L37.1153 29.224C37.5993 28.806 38.1493 28.366 39.1613 28.366C40.0853 28.366 41.6253 28.806 41.6253 30.786C41.6253 32.678 40.1953 33.14 39.2492 33.14C37.4893 33.14 36.7633 32.018 36.4773 31.534L33.7713 32.986C34.5853 34.9 36.7413 36.22 39.2492 36.22C42.4833 36.22 45.1233 34.174 45.1233 30.786C45.1233 27.552 42.4613 25.44 39.7553 25.44C38.2593 25.44 37.5773 26.078 37.7313 25.858L38.0393 23.636H43.3853V20.6Z" fill="black"/>
<path d="M28.156 48H30.172L26.632 43.176L29.788 39.6H27.628L24.52 43.26V39.6H22.72V48H24.52V45.576L25.552 44.4L28.156 48ZM40.1927 39.6H38.4647L35.6927 45.66L32.9207 39.6H31.1927V48H32.9927V43.56L34.9247 48H36.4367L38.3927 43.536V48H40.1927V39.6Z" fill="black"/>
</svg>
