<svg width="22" height="23" viewBox="0 0 22 23" fill="none" xmlns="http://www.w3.org/2000/svg">
<path d="M3.14832 3.63281C5.28113 1.5 7.83712 0.433594 10.8163 0.433594C13.8293 0.433594 16.3853 1.5 18.4843 3.63281C20.6171 5.73177 21.6835 8.27083 21.6835 11.25C21.6835 14.2292 20.6171 16.7852 18.4843 18.918C16.3853 21.0169 13.8293 22.0664 10.8163 22.0664C7.83712 22.0664 5.28113 21.0169 3.14832 18.918C1.04936 16.7852 -0.00012207 14.2292 -0.00012207 11.25C-0.00012207 8.27083 1.04936 5.73177 3.14832 3.63281ZM13.1014 4.64844C12.4921 4.00521 11.7303 3.68359 10.8163 3.68359C9.93608 3.68359 9.17436 4.00521 8.53113 4.64844C7.8879 5.25781 7.56628 6.01953 7.56628 6.93359C7.56628 7.8138 7.8879 8.57552 8.53113 9.21875C9.17436 9.86198 9.93608 10.1836 10.8163 10.1836C11.7303 10.1836 12.4921 9.86198 13.1014 9.21875C13.7447 8.57552 14.0663 7.8138 14.0663 6.93359C14.0663 6.01953 13.7447 5.25781 13.1014 4.64844ZM7.10925 18.1562C8.26029 18.7656 9.49597 19.0703 10.8163 19.0703C12.1705 19.0703 13.4061 18.7656 14.5233 18.1562C15.6744 17.513 16.6053 16.6497 17.3163 15.5664C17.3163 14.8893 16.91 14.2969 16.0975 13.7891C15.3189 13.2474 14.4387 12.8581 13.4569 12.6211C12.509 12.3503 11.6288 12.2148 10.8163 12.2148C10.0376 12.2148 9.15743 12.3503 8.17566 12.6211C7.22774 12.8581 6.34753 13.2474 5.53503 13.7891C4.75639 14.2969 4.35014 14.8893 4.31628 15.5664C5.02722 16.6497 5.95821 17.513 7.10925 18.1562Z" fill="#191919"/>
</svg>
